<svg xmlns="http://www.w3.org/2000/svg" xmlns:xlink="http://www.w3.org/1999/xlink" preserveAspectRatio="xMidYMid" width="111" height="18" viewBox="0 0 111 18">
  <defs>
    <style>

      .cls-2 {
        fill: #ffffff;
      }
    </style>
  </defs>
  <path d="M105.772,1.914 C105.772,1.914 105.772,17.034 105.772,17.034 C105.772,17.034 103.612,17.034 103.612,17.034 C103.612,17.034 103.612,1.914 103.612,1.914 C103.612,1.914 99.772,1.914 99.772,1.914 C99.772,1.914 99.772,0.234 99.772,0.234 C99.772,0.234 109.612,0.234 109.612,0.234 C109.612,0.234 109.612,1.914 109.612,1.914 C109.612,1.914 105.772,1.914 105.772,1.914 ZM97.243,10.806 C96.867,11.278 96.395,11.614 95.827,11.814 C95.259,12.014 94.583,12.114 93.799,12.114 C93.431,12.114 93.015,12.090 92.551,12.042 C92.087,11.994 91.703,11.938 91.399,11.874 C91.399,11.874 91.399,17.034 91.399,17.034 C91.399,17.034 89.239,17.034 89.239,17.034 C89.239,17.034 89.239,0.474 89.239,0.474 C89.847,0.298 90.459,0.174 91.075,0.102 C91.691,0.030 92.359,-0.006 93.079,-0.006 C94.039,-0.006 94.855,0.094 95.527,0.294 C96.199,0.494 96.743,0.826 97.159,1.290 C97.575,1.755 97.879,2.370 98.071,3.138 C98.263,3.906 98.359,4.858 98.359,5.994 C98.359,7.162 98.267,8.139 98.083,8.922 C97.899,9.706 97.619,10.334 97.243,10.806 ZM96.019,3.834 C95.899,3.258 95.711,2.802 95.455,2.466 C95.199,2.130 94.875,1.894 94.483,1.758 C94.091,1.622 93.623,1.554 93.079,1.554 C93.079,1.554 91.399,1.554 91.399,1.554 C91.399,1.554 91.399,10.434 91.399,10.434 C91.399,10.434 93.079,10.434 93.079,10.434 C93.623,10.434 94.091,10.366 94.483,10.230 C94.875,10.094 95.199,9.858 95.455,9.522 C95.711,9.186 95.899,8.730 96.019,8.154 C96.139,7.578 96.199,6.858 96.199,5.994 C96.199,5.130 96.139,4.410 96.019,3.834 ZM83.858,12.714 C83.858,12.714 79.058,12.714 79.058,12.714 C79.058,12.714 77.978,17.034 77.978,17.034 C77.978,17.034 75.818,17.034 75.818,17.034 C75.818,17.034 79.898,0.234 79.898,0.234 C79.898,0.234 83.018,0.234 83.018,0.234 C83.018,0.234 87.098,17.034 87.098,17.034 C87.098,17.034 84.938,17.034 84.938,17.034 C84.938,17.034 83.858,12.714 83.858,12.714 ZM81.506,2.634 C81.506,2.634 81.410,2.634 81.410,2.634 C81.410,2.634 79.418,11.034 79.418,11.034 C79.418,11.034 83.498,11.034 83.498,11.034 C83.498,11.034 81.506,2.634 81.506,2.634 ZM70.961,4.554 C70.961,4.554 70.841,4.554 70.841,4.554 C70.841,4.554 67.361,14.874 67.361,14.874 C67.361,14.874 65.201,14.874 65.201,14.874 C65.201,14.874 61.721,4.554 61.721,4.554 C61.721,4.554 61.601,4.554 61.601,4.554 C61.601,4.554 60.881,17.034 60.881,17.034 C60.881,17.034 58.721,17.034 58.721,17.034 C58.721,17.034 59.681,0.234 59.681,0.234 C59.681,0.234 62.321,0.234 62.321,0.234 C62.321,0.234 66.233,11.754 66.233,11.754 C66.233,11.754 66.329,11.754 66.329,11.754 C66.329,11.754 70.241,0.234 70.241,0.234 C70.241,0.234 72.881,0.234 72.881,0.234 C72.881,0.234 73.841,17.034 73.841,17.034 C73.841,17.034 71.681,17.034 71.681,17.034 C71.681,17.034 70.961,4.554 70.961,4.554 ZM55.162,15.474 C54.714,16.131 54.174,16.594 53.542,16.866 C52.909,17.138 52.186,17.274 51.370,17.274 C50.554,17.274 49.830,17.138 49.198,16.866 C48.565,16.594 48.025,16.131 47.578,15.474 C47.130,14.818 46.789,13.934 46.558,12.822 C46.326,11.710 46.210,10.314 46.210,8.634 C46.210,6.954 46.326,5.559 46.558,4.446 C46.789,3.334 47.130,2.451 47.578,1.794 C48.025,1.138 48.565,0.675 49.198,0.402 C49.830,0.130 50.554,-0.006 51.370,-0.006 C52.186,-0.006 52.909,0.130 53.542,0.402 C54.174,0.675 54.714,1.138 55.162,1.794 C55.609,2.451 55.950,3.334 56.182,4.446 C56.413,5.559 56.530,6.954 56.530,8.634 C56.530,10.314 56.413,11.710 56.182,12.822 C55.950,13.934 55.609,14.818 55.162,15.474 ZM54.118,5.082 C53.950,4.154 53.730,3.418 53.458,2.874 C53.185,2.331 52.866,1.954 52.498,1.746 C52.129,1.539 51.754,1.434 51.370,1.434 C50.986,1.434 50.610,1.539 50.242,1.746 C49.873,1.954 49.554,2.331 49.282,2.874 C49.009,3.418 48.790,4.154 48.622,5.082 C48.454,6.010 48.370,7.194 48.370,8.634 C48.370,10.074 48.454,11.258 48.622,12.186 C48.790,13.114 49.009,13.851 49.282,14.394 C49.554,14.938 49.873,15.315 50.242,15.522 C50.610,15.730 50.986,15.834 51.370,15.834 C51.754,15.834 52.129,15.730 52.498,15.522 C52.866,15.315 53.185,14.938 53.458,14.394 C53.730,13.851 53.950,13.114 54.118,12.186 C54.286,11.258 54.370,10.074 54.370,8.634 C54.370,7.194 54.286,6.010 54.118,5.082 ZM41.410,9.354 C41.410,9.354 36.370,9.354 36.370,9.354 C36.370,9.354 36.370,17.034 36.370,17.034 C36.370,17.034 34.210,17.034 34.210,17.034 C34.210,17.034 34.210,0.234 34.210,0.234 C34.210,0.234 36.370,0.234 36.370,0.234 C36.370,0.234 36.370,7.674 36.370,7.674 C36.370,7.674 41.410,7.674 41.410,7.674 C41.410,7.674 41.410,0.234 41.410,0.234 C41.410,0.234 43.570,0.234 43.570,0.234 C43.570,0.234 43.570,17.034 43.570,17.034 C43.570,17.034 41.410,17.034 41.410,17.034 C41.410,17.034 41.410,9.354 41.410,9.354 ZM29.955,17.034 C29.955,17.034 26.955,9.834 26.955,9.834 C26.955,9.834 23.955,17.034 23.955,17.034 C23.955,17.034 21.795,17.034 21.795,17.034 C21.795,17.034 25.395,8.394 25.395,8.394 C25.395,8.394 22.155,0.234 22.155,0.234 C22.155,0.234 24.315,0.234 24.315,0.234 C24.315,0.234 26.955,6.954 26.955,6.954 C26.955,6.954 29.595,0.234 29.595,0.234 C29.595,0.234 31.755,0.234 31.755,0.234 C31.755,0.234 28.515,8.394 28.515,8.394 C28.515,8.394 32.115,17.034 32.115,17.034 C32.115,17.034 29.955,17.034 29.955,17.034 ZM11.890,0.234 C11.890,0.234 20.050,0.234 20.050,0.234 C20.050,0.234 20.050,1.914 20.050,1.914 C20.050,1.914 14.050,1.914 14.050,1.914 C14.050,1.914 14.050,7.434 14.050,7.434 C14.050,7.434 19.330,7.434 19.330,7.434 C19.330,7.434 19.330,9.114 19.330,9.114 C19.330,9.114 14.050,9.114 14.050,9.114 C14.050,9.114 14.050,15.354 14.050,15.354 C14.050,15.354 20.050,15.354 20.050,15.354 C20.050,15.354 20.050,17.034 20.050,17.034 C20.050,17.034 11.890,17.034 11.890,17.034 C11.890,17.034 11.890,0.234 11.890,0.234 ZM6.015,17.034 C6.015,17.034 3.855,17.034 3.855,17.034 C3.855,17.034 3.855,1.914 3.855,1.914 C3.855,1.914 0.015,1.914 0.015,1.914 C0.015,1.914 0.015,0.234 0.015,0.234 C0.015,0.234 9.855,0.234 9.855,0.234 C9.855,0.234 9.855,1.914 9.855,1.914 C9.855,1.914 6.015,1.914 6.015,1.914 C6.015,1.914 6.015,17.034 6.015,17.034 Z" id="path-1" class="cls-2" fill-rule="evenodd"/>
</svg>
